<?xml version="1.0" encoding="utf-8"?>
<svg viewBox="0 0 500 500" xmlns="http://www.w3.org/2000/svg">
  <rect x="46.859" y="168.281" width="73.664" height="13.916" style="fill: rgb(255, 255, 255); stroke: rgb(0, 0, 0); stroke-width: 5px; stroke-linejoin: round; stroke-linecap: round;" transform="matrix(1, 0, 0, 1, 1.1368683772161603e-13, 0)"/>
  <rect x="46.471" y="238.965" width="73.664" height="13.916" style="fill: rgb(255, 255, 255); stroke: rgb(0, 0, 0); stroke-width: 5px; stroke-linejoin: round; stroke-linecap: round;" transform="matrix(1, 0, 0, 1, 1.1368683772161603e-13, 0)"/>
  <rect x="46.757" y="308.549" width="73.664" height="13.916" style="fill: rgb(255, 255, 255); stroke: rgb(0, 0, 0); stroke-width: 5px; stroke-linejoin: round; stroke-linecap: round;" transform="matrix(1, 0, 0, 1, 1.1368683772161603e-13, 0)"/>
  <rect x="265.181" y="169.169" width="73.664" height="13.916" style="fill: rgb(255, 255, 255); stroke: rgb(0, 0, 0); stroke-width: 5px; stroke-linejoin: round; stroke-linecap: round;" transform="matrix(1, 0, 0, 1, 1.1368683772161603e-13, 0)"/>
  <rect x="264.828" y="308.566" width="73.664" height="13.916" style="fill: rgb(255, 255, 255); stroke: rgb(0, 0, 0); stroke-width: 5px; stroke-linejoin: round; stroke-linecap: round;" transform="matrix(1, 0, 0, 1, 1.1368683772161603e-13, 0)"/>
  <rect x="178.533" y="192.147" width="29.376" height="13.916" style="fill: rgb(255, 255, 255); stroke: rgb(0, 0, 0); stroke-width: 5px; stroke-linejoin: round; stroke-linecap: round;" transform="matrix(1, 0, 0, 1, 1.1368683772161603e-13, 0)"/>
  <rect x="249.248" y="191.749" width="29.376" height="13.916" style="fill: rgb(255, 255, 255); stroke: rgb(0, 0, 0); stroke-width: 5px; stroke-linejoin: round; stroke-linecap: round;" transform="matrix(1, 0, 0, 1, 1.1368683772161603e-13, 0)"/>
  <rect x="325.533" y="191.569" width="29.376" height="13.916" style="fill: rgb(255, 255, 255); stroke: rgb(0, 0, 0); stroke-width: 5px; stroke-linejoin: round; stroke-linecap: round;" transform="matrix(1, 0, 0, 1, 1.1368683772161603e-13, 0)"/>
  <rect x="178.408" y="214.702" width="29.376" height="13.916" style="fill: rgb(255, 255, 255); stroke: rgb(0, 0, 0); stroke-width: 5px; stroke-linejoin: round; stroke-linecap: round;" transform="matrix(1, 0, 0, 1, 1.1368683772161603e-13, 0)"/>
  <rect x="249.123" y="214.304" width="29.376" height="13.916" style="fill: rgb(255, 255, 255); stroke: rgb(0, 0, 0); stroke-width: 5px; stroke-linejoin: round; stroke-linecap: round;" transform="matrix(1, 0, 0, 1, 1.1368683772161603e-13, 0)"/>
  <rect x="325.408" y="214.124" width="29.376" height="13.916" style="fill: rgb(255, 255, 255); stroke: rgb(0, 0, 0); stroke-width: 5px; stroke-linejoin: round; stroke-linecap: round;" transform="matrix(1, 0, 0, 1, 1.1368683772161603e-13, 0)"/>
  <rect x="178.622" y="238.866" width="29.376" height="13.916" style="fill: rgb(255, 255, 255); stroke: rgb(0, 0, 0); stroke-width: 5px; stroke-linejoin: round; stroke-linecap: round;" transform="matrix(1, 0, 0, 1, 1.1368683772161603e-13, 0)"/>
  <rect x="249.337" y="238.468" width="29.376" height="13.916" style="fill: rgb(255, 255, 255); stroke: rgb(0, 0, 0); stroke-width: 5px; stroke-linejoin: round; stroke-linecap: round;" transform="matrix(1, 0, 0, 1, 1.1368683772161603e-13, 0)"/>
  <rect x="325.622" y="238.288" width="29.376" height="13.916" style="fill: rgb(255, 255, 255); stroke: rgb(0, 0, 0); stroke-width: 5px; stroke-linejoin: round; stroke-linecap: round;" transform="matrix(1, 0, 0, 1, 1.1368683772161603e-13, 0)"/>
  <rect x="178.828" y="262.662" width="29.376" height="13.916" style="fill: rgb(255, 255, 255); stroke: rgb(0, 0, 0); stroke-width: 5px; stroke-linejoin: round; stroke-linecap: round;" transform="matrix(1, 0, 0, 1, 1.1368683772161603e-13, 0)"/>
  <rect x="249.543" y="262.264" width="29.376" height="13.916" style="fill: rgb(255, 255, 255); stroke: rgb(0, 0, 0); stroke-width: 5px; stroke-linejoin: round; stroke-linecap: round;" transform="matrix(1, 0, 0, 1, 1.1368683772161603e-13, 0)"/>
  <rect x="325.828" y="262.084" width="29.376" height="13.916" style="fill: rgb(255, 255, 255); stroke: rgb(0, 0, 0); stroke-width: 5px; stroke-linejoin: round; stroke-linecap: round;" transform="matrix(1, 0, 0, 1, 1.1368683772161603e-13, 0)"/>
  <rect x="178.856" y="284.797" width="29.376" height="13.916" style="fill: rgb(255, 255, 255); stroke: rgb(0, 0, 0); stroke-width: 5px; stroke-linejoin: round; stroke-linecap: round;" transform="matrix(1, 0, 0, 1, 1.1368683772161603e-13, 0)"/>
  <rect x="249.571" y="284.399" width="29.376" height="13.916" style="fill: rgb(255, 255, 255); stroke: rgb(0, 0, 0); stroke-width: 5px; stroke-linejoin: round; stroke-linecap: round;" transform="matrix(1, 0, 0, 1, 1.1368683772161603e-13, 0)"/>
  <rect x="325.856" y="284.219" width="29.376" height="13.916" style="fill: rgb(255, 255, 255); stroke: rgb(0, 0, 0); stroke-width: 5px; stroke-linejoin: round; stroke-linecap: round;" transform="matrix(1, 0, 0, 1, 1.1368683772161603e-13, 0)"/>
  <rect x="31.972" y="284.774" width="29.376" height="13.916" style="fill: rgb(255, 255, 255); stroke: rgb(0, 0, 0); stroke-width: 5px; stroke-linejoin: round; stroke-linecap: round;" transform="matrix(1, 0, 0, 1, 1.1368683772161603e-13, 0)"/>
  <rect x="108.257" y="284.594" width="29.376" height="13.916" style="fill: rgb(255, 255, 255); stroke: rgb(0, 0, 0); stroke-width: 5px; stroke-linejoin: round; stroke-linecap: round;" transform="matrix(1, 0, 0, 1, 1.1368683772161603e-13, 0)"/>
  <rect x="31.361" y="191.7" width="29.376" height="13.916" style="fill: rgb(255, 255, 255); stroke: rgb(0, 0, 0); stroke-width: 5px; stroke-linejoin: round; stroke-linecap: round;" transform="matrix(1, 0, 0, 1, 1.1368683772161603e-13, 0)"/>
  <rect x="107.646" y="191.52" width="29.376" height="13.916" style="fill: rgb(255, 255, 255); stroke: rgb(0, 0, 0); stroke-width: 5px; stroke-linejoin: round; stroke-linecap: round;" transform="matrix(1, 0, 0, 1, 1.1368683772161603e-13, 0)"/>
  <rect x="31.264" y="215.054" width="29.376" height="13.916" style="fill: rgb(255, 255, 255); stroke: rgb(0, 0, 0); stroke-width: 5px; stroke-linejoin: round; stroke-linecap: round;" transform="matrix(1, 0, 0, 1, 1.1368683772161603e-13, 0)"/>
  <rect x="107.158" y="261.362" width="29.376" height="13.916" style="fill: rgb(255, 255, 255); stroke: rgb(0, 0, 0); stroke-width: 5px; stroke-linejoin: round; stroke-linecap: round;" transform="matrix(1, 0, 0, 1, 1.1368683772161603e-13, 0)"/>
  <rect x="164.878" y="168.18" width="56.833" height="13.916" style="fill: rgb(255, 255, 255); stroke: rgb(0, 0, 0); stroke-width: 5px; stroke-linejoin: round; stroke-linecap: round;" transform="matrix(1, 0, 0, 1, 1.1368683772161603e-13, 0)"/>
  <rect x="165.546" y="308.9" width="56.833" height="13.916" style="fill: rgb(255, 255, 255); stroke: rgb(0, 0, 0); stroke-width: 5px; stroke-linejoin: round; stroke-linecap: round;" transform="matrix(1, 0, 0, 1, 1.1368683772161603e-13, 0)"/>
  <rect x="391.289" y="308.447" width="71.503" height="9.638" style="fill: rgb(255, 255, 255); stroke: rgb(0, 0, 0); stroke-width: 5px; stroke-linejoin: round; stroke-linecap: round;" transform="matrix(1, 0, 0, 1, 1.1368683772161603e-13, 0)"/>
  <rect x="400.516" y="259.613" width="52.141" height="8.141" style="fill: rgb(255, 255, 255); stroke: rgb(0, 0, 0); stroke-width: 5px; stroke-linejoin: round; stroke-linecap: round;" transform="matrix(1, 0, 0, 1, 1.1368683772161603e-13, 0)"/>
  <rect x="402.143" y="209.854" width="52.141" height="8.378" style="fill: rgb(255, 255, 255); stroke: rgb(0, 0, 0); stroke-width: 5px; stroke-linejoin: round; stroke-linecap: round;" transform="matrix(1, 0, 0, 1, 1.1368683772161603e-13, 0)"/>
  <rect x="443.989" y="243.405" width="19.022" height="8.141" style="fill: rgb(255, 255, 255); stroke: rgb(0, 0, 0); stroke-width: 5px; stroke-linejoin: round; stroke-linecap: round;" transform="matrix(1, 0, 0, 1, 1.1368683772161603e-13, 0)"/>
  <rect x="444.73" y="227.229" width="19.022" height="8.141" style="fill: rgb(255, 255, 255); stroke: rgb(0, 0, 0); stroke-width: 5px; stroke-linejoin: round; stroke-linecap: round;" transform="matrix(1, 0, 0, 1, 1.1368683772161603e-13, 0)"/>
  <rect x="391.115" y="226.956" width="19.022" height="8.141" style="fill: rgb(255, 255, 255); stroke: rgb(0, 0, 0); stroke-width: 5px; stroke-linejoin: round; stroke-linecap: round;" transform="matrix(1, 0, 0, 1, 1.1368683772161603e-13, 0)"/>
  <rect x="392.064" y="274.685" width="19.022" height="8.141" style="fill: rgb(255, 255, 255); stroke: rgb(0, 0, 0); stroke-width: 5px; stroke-linejoin: round; stroke-linecap: round;" transform="matrix(1, 0, 0, 1, 1.1368683772161603e-13, 0)"/>
  <rect x="391.864" y="292.007" width="19.022" height="8.141" style="fill: rgb(255, 255, 255); stroke: rgb(0, 0, 0); stroke-width: 5px; stroke-linejoin: round; stroke-linecap: round;" transform="matrix(1, 0, 0, 1, 1.1368683772161603e-13, 0)"/>
  <rect x="444.785" y="292.108" width="19.022" height="8.141" style="fill: rgb(255, 255, 255); stroke: rgb(0, 0, 0); stroke-width: 5px; stroke-linejoin: round; stroke-linecap: round;" transform="matrix(1, 0, 0, 1, 1.1368683772161603e-13, 0)"/>
</svg>